<?xml version="1.0" standalone="no"?>
<!DOCTYPE svg PUBLIC "-//W3C//DTD SVG 20010904//EN"
 "http://www.w3.org/TR/2001/REC-SVG-20010904/DTD/svg10.dtd">
<svg version="1.0" xmlns="http://www.w3.org/2000/svg"
 width="401.000000pt" height="214.000000pt" viewBox="0 0 401.000000 214.000000"
 preserveAspectRatio="xMidYMid meet">

<g transform="translate(0.000000,214.000000) scale(0.100000,-0.100000)"
fill="#000000" stroke="none">
<path d="M973 2095 c-37 -16 -63 -60 -63 -106 0 -22 10 -41 34 -65 28 -28 42
-34 76 -34 55 0 110 50 110 100 0 83 -83 138 -157 105z"/>
<path d="M1241 2036 c-67 -37 -67 -140 -1 -179 35 -21 62 -21 100 -2 37 19 50
43 50 90 0 47 -13 71 -50 90 -35 18 -67 19 -99 1z"/>
<path d="M1484 1911 c-73 -31 -71 -141 3 -176 66 -31 133 13 133 87 0 68 -73
115 -136 89z"/>
<path d="M1685 1721 c-35 -15 -57 -48 -57 -86 0 -104 146 -119 176 -18 10 30
-19 87 -50 102 -29 13 -41 13 -69 2z"/>
<path d="M877 1647 c-24 -17 -12 -49 17 -45 15 2 21 10 21 27 0 29 -14 36 -38
18z"/>
<path d="M1040 1626 c0 -15 24 -28 34 -19 7 7 -13 33 -25 33 -5 0 -9 -6 -9
-14z"/>
<path d="M1350 1489 c0 -24 23 -21 28 4 2 10 -3 17 -12 17 -10 0 -16 -9 -16
-21z"/>
<path d="M1789 1461 c-32 -33 -36 -58 -14 -100 39 -77 155 -40 155 49 0 30
-53 80 -85 80 -16 0 -38 -12 -56 -29z"/>
<path d="M1205 1416 c-22 -7 -60 -26 -84 -42 l-45 -29 -229 -2 c-127 -1 -234
-6 -239 -11 -5 -5 1 -17 12 -27 14 -13 24 -16 28 -8 4 6 76 12 187 16 99 3
191 9 204 13 20 6 15 -4 -30 -57 -42 -50 -103 -130 -135 -177 -3 -5 -62 -10
-123 -11 -74 -1 -55 -15 30 -21 l69 -5 -63 -85 c-67 -90 -111 -125 -127 -100
-7 11 -11 11 -24 1 -9 -8 -16 -22 -16 -32 0 -15 7 -19 33 -19 45 0 99 47 182
160 52 72 71 90 90 90 22 0 25 -3 19 -25 -4 -18 -2 -25 9 -25 17 0 90 64 81
72 -3 3 -33 4 -66 0 l-61 -5 50 74 c28 41 71 97 95 124 40 44 54 52 114 68 85
21 144 54 123 68 -18 11 -35 10 -84 -5z m35 -15 c0 -10 -73 -41 -97 -41 -15 0
-14 2 3 14 11 8 36 19 55 24 19 6 35 11 37 11 1 1 2 -3 2 -8z"/>
<path d="M1456 1383 c-11 -11 -6 -23 9 -23 8 0 15 4 15 9 0 13 -16 22 -24 14z"/>
<path d="M2358 1375 c-124 -46 -288 -231 -248 -280 30 -36 127 6 190 83 47 58
35 60 -16 3 -66 -74 -136 -104 -150 -66 -24 63 174 255 262 255 38 0 57 -28
50 -73 -10 -60 -27 -84 -123 -182 -141 -143 -230 -285 -179 -285 34 0 164 153
247 291 52 88 110 139 156 139 27 0 27 0 8 -48 -22 -52 -67 -122 -150 -232
-133 -176 -126 -191 22 -50 115 109 248 220 264 220 19 0 7 -21 -70 -124 -86
-114 -111 -167 -91 -191 19 -22 49 -18 105 14 51 29 86 61 67 61 -5 0 -15 -7
-23 -16 -15 -19 -82 -54 -103 -54 -21 0 -26 24 -10 56 8 15 45 71 83 123 90
126 97 139 75 148 -26 10 -70 -19 -198 -132 -66 -58 -121 -105 -123 -105 -2 0
16 28 41 63 104 142 151 231 147 275 -2 20 -52 13 -99 -14 -39 -23 -44 -24
-37 -8 5 11 10 41 13 68 6 74 -27 92 -110 61z m8 -263 c-40 -77 -187 -262
-208 -262 -20 0 -4 34 45 100 49 64 163 190 173 190 3 0 -2 -12 -10 -28z"/>
<path d="M1423 1241 c-65 -51 -133 -129 -195 -223 -51 -77 -105 -125 -174
-154 -27 -12 -39 -12 -50 -3 -21 17 -18 25 20 48 75 46 113 111 66 111 -42 0
-130 -101 -130 -149 0 -47 81 -41 151 11 59 43 62 44 55 10 -8 -33 16 -67 41
-58 8 3 18 6 23 6 4 0 35 20 69 45 34 25 61 43 61 40 0 -2 -8 -20 -17 -40 -12
-25 -14 -38 -6 -46 13 -13 46 3 131 65 70 52 87 39 22 -17 -22 -19 -40 -37
-40 -41 0 -4 15 4 32 19 l33 28 5 -24 c9 -38 43 -35 107 10 32 22 72 52 88 66
33 29 29 28 -79 -45 -71 -48 -86 -50 -86 -11 0 24 10 35 66 72 37 24 62 45 56
47 -6 2 -31 -10 -56 -27 -54 -37 -58 -38 -50 -6 5 19 2 25 -11 25 -9 0 -19 -9
-22 -21 -5 -19 -135 -119 -155 -119 -17 0 -7 28 27 76 19 27 31 50 25 52 -5 2
-35 -17 -66 -43 -31 -25 -77 -58 -101 -72 -38 -22 -46 -24 -59 -12 -17 17 -5
70 23 101 9 10 18 25 19 33 5 37 139 199 201 244 109 79 -20 -102 -141 -199
-30 -24 -53 -46 -51 -48 5 -6 99 73 171 144 53 51 94 109 94 132 0 24 -49 11
-97 -27z m-343 -255 c0 -12 -63 -76 -75 -76 -13 0 -2 23 26 55 33 37 49 44 49
21z"/>
<path d="M1854 1197 c-36 -32 -36 -83 1 -114 34 -30 70 -29 100 2 40 39 32 96
-16 120 -38 20 -53 19 -85 -8z"/>
<path d="M3375 1179 c-113 -14 -156 -23 -153 -34 3 -12 23 -11 96 5 102 22
102 16 2 -103 -82 -96 -188 -187 -219 -187 -17 0 -14 7 29 64 22 29 40 56 40
59 0 20 -45 1 -115 -48 -43 -30 -81 -53 -83 -50 -2 2 14 27 36 56 37 48 44 69
24 69 -4 0 -38 -22 -76 -50 -38 -27 -79 -50 -91 -50 -22 0 -22 0 -7 44 15 40
15 45 -1 70 -12 18 -26 26 -45 26 -38 0 -52 -17 -52 -63 0 -27 -8 -48 -25 -69
-28 -33 -32 -60 -11 -77 16 -14 61 4 85 33 8 9 22 16 33 16 23 0 71 24 116 57
18 14 35 23 38 21 2 -3 -14 -30 -36 -61 -22 -30 -40 -58 -40 -61 0 -17 35 0
106 54 43 33 82 60 87 60 4 0 -6 -19 -23 -42 -32 -44 -40 -88 -16 -88 8 0 44
20 81 45 42 28 64 38 59 27 -11 -26 -10 -65 2 -69 6 -2 42 17 79 42 37 25 69
45 71 45 2 0 -1 -11 -6 -25 -15 -39 -3 -55 40 -55 39 0 121 46 192 109 49 43
60 21 14 -29 -62 -69 -38 -101 40 -55 25 15 43 29 40 32 -3 3 -19 -5 -36 -17
-46 -33 -60 -12 -22 32 23 25 29 40 25 61 -4 18 0 34 12 47 21 23 11 47 -12
28 -9 -7 -21 -26 -28 -41 -23 -56 -182 -165 -219 -151 -27 11 -18 32 29 64 50
34 80 73 70 90 -12 20 -43 10 -86 -29 -61 -53 -159 -121 -176 -121 -32 0 10
71 121 204 36 43 66 85 66 92 0 11 27 14 131 14 84 0 128 4 124 10 -7 12 -209
11 -310 -1z m-539 -164 c28 -43 -3 -120 -32 -80 -22 29 -29 86 -13 96 21 13
27 11 45 -16z m617 -57 c-15 -16 -36 -34 -46 -40 -17 -9 -17 -8 -3 21 18 34
55 63 68 54 6 -3 -3 -19 -19 -35z m-655 -75 c-6 -8 -20 -19 -30 -24 -26 -14
-35 14 -13 47 16 25 17 25 36 8 15 -13 16 -20 7 -31z"/>
<path d="M65 1110 c3 -5 8 -10 11 -10 2 0 4 5 4 10 0 6 -5 10 -11 10 -5 0 -7
-4 -4 -10z"/>
<path d="M397 1072 c-32 -35 -15 -82 29 -82 21 0 54 33 54 52 0 13 -39 48 -53
48 -8 0 -21 -8 -30 -18z"/>
<path d="M1450 1051 c-7 -14 -7 -22 0 -26 13 -8 40 13 40 31 0 21 -28 17 -40
-5z"/>
<path d="M3746 1029 c-9 -13 -12 -33 -9 -53 4 -26 1 -35 -19 -48 -29 -19 -38
-82 -13 -92 18 -7 65 14 84 38 8 9 22 16 33 16 23 0 94 35 104 52 4 6 -8 2
-28 -10 -19 -12 -44 -22 -55 -22 -19 0 -20 2 -5 45 13 41 13 47 -2 70 -21 32
-68 34 -90 4z m70 -14 c16 -25 14 -56 -6 -85 -9 -13 -12 -13 -25 4 -8 10 -12
23 -9 27 3 5 0 9 -5 9 -15 0 -14 57 2 63 22 9 26 7 43 -18z m-38 -132 c-6 -8
-20 -19 -30 -24 -26 -14 -35 14 -13 47 16 25 17 25 36 8 15 -13 16 -20 7 -31z"/>
<path d="M426 911 c-22 -25 -17 -60 11 -78 20 -14 24 -13 48 11 30 30 32 61 6
76 -29 15 -46 12 -65 -9z"/>
<path d="M1827 912 c-40 -44 -6 -122 53 -122 60 0 92 78 50 120 -26 26 -81 26
-103 2z"/>
<path d="M84 849 c-10 -17 13 -36 27 -22 12 12 4 33 -11 33 -5 0 -12 -5 -16
-11z"/>
<path d="M1731 654 c-26 -33 -27 -58 -1 -84 43 -43 110 -14 110 48 0 59 -72
83 -109 36z"/>
<path d="M3127 620 c-13 -33 -43 -220 -36 -220 10 0 15 17 34 123 15 81 16
134 2 97z"/>
<path d="M3624 603 c-3 -16 -8 -35 -11 -43 -3 -8 -7 -35 -9 -58 -6 -57 -19
-80 -51 -88 -35 -9 -56 19 -49 65 7 48 34 74 69 67 17 -4 26 -2 22 4 -11 17
-64 11 -84 -9 -50 -50 -31 -141 29 -141 16 0 32 5 36 11 4 8 9 7 15 -2 6 -11
9 -11 13 1 13 38 42 220 35 220 -5 0 -11 -12 -15 -27z"/>
<path d="M187 606 c-8 -20 20 -43 35 -28 14 14 3 42 -16 42 -7 0 -16 -6 -19
-14z"/>
<path d="M1884 509 l-21 -111 59 4 c68 5 103 31 118 89 21 76 -18 129 -94 129
l-42 0 -20 -111z m130 69 c34 -48 7 -130 -48 -153 -20 -8 -45 -15 -57 -15 -20
0 -21 4 -16 43 3 23 11 66 17 95 12 52 12 52 50 52 29 0 43 -6 54 -22z"/>
<path d="M2101 534 c-25 -32 -28 -96 -5 -118 20 -20 78 -21 94 -1 8 9 9 15 2
15 -6 0 -14 -4 -17 -10 -11 -18 -53 -11 -69 12 -29 41 -21 48 49 48 56 0 65 3
65 18 0 61 -80 85 -119 36z m87 4 c7 -7 12 -20 12 -30 0 -15 -9 -18 -50 -18
-54 0 -61 9 -30 40 23 23 50 26 68 8z"/>
<path d="M2270 545 c-19 -23 -7 -49 32 -67 47 -22 56 -38 33 -55 -25 -18 -50
-17 -70 3 -20 20 -33 11 -15 -11 20 -24 86 -20 104 7 20 28 5 55 -37 66 -43
11 -51 48 -12 58 17 4 32 1 44 -10 24 -22 34 -20 21 4 -13 24 -81 28 -100 5z"/>
<path d="M2431 534 c-27 -34 -28 -95 -3 -117 23 -21 75 -22 92 -2 14 17 0 21
-17 4 -17 -17 -57 -6 -70 20 -6 14 -10 29 -7 33 3 4 32 8 65 8 50 0 59 3 59
18 0 61 -80 85 -119 36z m87 4 c7 -7 12 -20 12 -30 0 -15 -9 -18 -50 -18 -54
0 -61 9 -30 40 23 23 50 26 68 8z"/>
<path d="M2595 535 c-28 -135 -28 -135 -15 -135 5 0 12 23 16 50 7 56 36 100
64 100 32 0 41 -23 30 -80 -12 -64 -12 -70 -2 -70 14 0 32 120 21 141 -15 28
-108 23 -114 -6z"/>
<path d="M2763 538 c3 -13 11 -49 18 -81 7 -32 16 -56 22 -54 5 1 29 38 53 81
24 42 38 76 32 74 -7 -3 -28 -33 -47 -69 l-36 -64 -15 68 c-8 37 -18 67 -23
67 -5 0 -7 -10 -4 -22z"/>
<path d="M2937 542 c-30 -33 -40 -78 -25 -109 12 -24 19 -28 57 -28 36 0 47 5
64 27 22 29 25 75 7 107 -14 28 -80 29 -103 3z m89 -17 c29 -44 -6 -115 -57
-115 -30 0 -52 36 -45 74 12 62 72 86 102 41z"/>
<path d="M3170 550 c0 -28 32 -150 40 -150 7 0 90 142 90 155 0 18 -20 -1 -34
-34 -10 -21 -26 -51 -36 -66 l-18 -28 -13 62 c-6 34 -16 64 -20 67 -5 3 -9 0
-9 -6z"/>
<path d="M3339 534 c-30 -32 -33 -99 -4 -120 26 -19 80 -18 96 3 12 15 12 16
-6 9 -44 -18 -56 -18 -75 -1 -11 10 -20 26 -20 37 0 15 8 18 60 18 59 0 60 0
60 28 0 36 -17 52 -55 52 -21 0 -40 -9 -56 -26z m91 -4 c16 -30 4 -40 -46 -40
-48 0 -55 11 -27 42 22 24 60 23 73 -2z"/>
<path d="M3702 553 c-19 -7 -42 -58 -42 -91 0 -71 101 -87 135 -21 32 60 7
120 -48 118 -18 0 -38 -3 -45 -6z m76 -15 c33 -33 -5 -128 -52 -128 -31 0 -46
19 -46 59 0 59 63 104 98 69z"/>
<path d="M3866 550 c-7 -23 -26 -119 -26 -135 0 -8 4 -15 9 -15 5 0 11 23 15
50 9 70 15 80 50 96 26 11 27 13 9 14 -12 0 -25 -5 -29 -11 -4 -8 -9 -7 -15 2
-6 11 -9 11 -13 -1z"/>
<path d="M902 508 c2 -20 13 -38 30 -51 23 -17 31 -18 57 -8 55 23 48 47 -22
76 -56 23 -69 20 -65 -17z"/>
<path d="M820 508 c-29 -18 -32 -23 -16 -26 18 -4 65 32 55 42 -3 3 -20 -4
-39 -16z"/>
<path d="M1572 450 c-26 -24 -28 -47 -6 -78 18 -26 65 -30 88 -6 24 23 20 70
-6 88 -30 21 -50 20 -76 -4z"/>
<path d="M353 404 c-4 -11 1 -22 12 -31 16 -11 21 -11 33 1 8 8 12 22 9 30 -8
21 -46 21 -54 0z"/>
<path d="M1355 290 c-37 -41 11 -104 61 -81 50 23 34 101 -21 101 -12 0 -30
-9 -40 -20z"/>
<path d="M566 264 c-8 -21 -8 -20 10 -38 19 -20 29 -20 48 0 12 12 13 20 6 35
-13 23 -55 25 -64 3z"/>
<path d="M1099 199 c-8 -16 -8 -28 0 -45 15 -34 67 -34 82 0 16 35 -3 66 -41
66 -20 0 -33 -7 -41 -21z"/>
<path d="M832 201 c-18 -11 -11 -51 11 -65 22 -14 51 3 55 34 4 23 -12 40 -38
40 -8 0 -21 -4 -28 -9z"/>
</g>
</svg>
